<svg width="669" height="168" viewBox="0 0 669 168" fill="none" xmlns="http://www.w3.org/2000/svg">
<path d="M61.405 11.0659L61.4028 129.768M630.998 129.782L60.9978 129.772" stroke="#4D4D4D"/>
<path d="M35.1133 131.669C34.5453 132.461 33.7493 132.857 32.7253 132.857C31.7013 132.857 30.9053 132.461 30.3373 131.669C29.7693 130.877 29.4853 129.821 29.4853 128.501C29.4853 127.181 29.7693 126.125 30.3373 125.333C30.9053 124.541 31.7013 124.145 32.7253 124.145C33.7493 124.145 34.5453 124.541 35.1133 125.333C35.6813 126.125 35.9653 127.181 35.9653 128.501C35.9653 129.821 35.6813 130.877 35.1133 131.669ZM31.1533 130.913C31.5213 131.481 32.0453 131.765 32.7253 131.765C33.4053 131.765 33.9293 131.481 34.2973 130.913C34.6733 130.345 34.8613 129.541 34.8613 128.501C34.8613 127.461 34.6733 126.657 34.2973 126.089C33.9293 125.513 33.4053 125.225 32.7253 125.225C32.0453 125.225 31.5213 125.509 31.1533 126.077C30.7853 126.645 30.6013 127.453 30.6013 128.501C30.6013 129.541 30.7853 130.345 31.1533 130.913ZM38.8255 127.865C38.2815 127.865 37.8295 127.685 37.4695 127.325C37.1095 126.965 36.9295 126.525 36.9295 126.005C36.9295 125.493 37.1095 125.057 37.4695 124.697C37.8375 124.329 38.2895 124.145 38.8255 124.145C39.3695 124.145 39.8215 124.325 40.1815 124.685C40.5415 125.045 40.7215 125.485 40.7215 126.005C40.7215 126.525 40.5415 126.965 40.1815 127.325C39.8295 127.685 39.3775 127.865 38.8255 127.865ZM38.1295 126.713C38.3135 126.897 38.5455 126.989 38.8255 126.989C39.1055 126.989 39.3335 126.893 39.5095 126.701C39.6935 126.509 39.7855 126.277 39.7855 126.005C39.7855 125.733 39.6935 125.505 39.5095 125.321C39.3335 125.129 39.1055 125.033 38.8255 125.033C38.5455 125.033 38.3135 125.129 38.1295 125.321C37.9535 125.505 37.8655 125.733 37.8655 126.005C37.8655 126.285 37.9535 126.521 38.1295 126.713ZM37.4935 131.513L43.0735 125.273L43.6615 125.597L38.0695 131.849L37.4935 131.513ZM43.8055 132.305C43.4455 132.665 42.9935 132.845 42.4495 132.845C41.9055 132.845 41.4535 132.665 41.0935 132.305C40.7335 131.945 40.5535 131.505 40.5535 130.985C40.5535 130.465 40.7335 130.025 41.0935 129.665C41.4535 129.305 41.9055 129.125 42.4495 129.125C42.9935 129.125 43.4455 129.305 43.8055 129.665C44.1655 130.025 44.3455 130.465 44.3455 130.985C44.3455 131.505 44.1655 131.945 43.8055 132.305ZM41.7535 131.681C41.9375 131.865 42.1695 131.957 42.4495 131.957C42.7295 131.957 42.9575 131.865 43.1335 131.681C43.3175 131.489 43.4095 131.257 43.4095 130.985C43.4095 130.713 43.3175 130.485 43.1335 130.301C42.9575 130.109 42.7295 130.013 42.4495 130.013C42.1695 130.013 41.9375 130.109 41.7535 130.301C41.5775 130.485 41.4895 130.713 41.4895 130.985C41.4895 131.257 41.5775 131.489 41.7535 131.681Z" fill="#979797"/>
<path d="M23.1664 73.3473V72.4353L26.1304 69.4113C26.9224 68.6193 27.3184 67.9393 27.3184 67.3713C27.3184 66.8993 27.1744 66.5313 26.8864 66.2673C26.5984 66.0033 26.2464 65.8713 25.8304 65.8713C25.0384 65.8713 24.4624 66.2473 24.1024 66.9993L23.1664 66.4473C23.4304 65.9033 23.7944 65.4913 24.2584 65.2113C24.7304 64.9313 25.2504 64.7913 25.8184 64.7913C26.5224 64.7913 27.1344 65.0233 27.6544 65.4873C28.1744 65.9513 28.4344 66.5753 28.4344 67.3593C28.4344 68.2073 27.9344 69.1313 26.9344 70.1313L24.7864 72.2673H28.5904V73.3473H23.1664ZM35.1133 72.3153C34.5453 73.1073 33.7493 73.5033 32.7253 73.5033C31.7013 73.5033 30.9053 73.1073 30.3373 72.3153C29.7693 71.5233 29.4853 70.4673 29.4853 69.1473C29.4853 67.8273 29.7693 66.7713 30.3373 65.9793C30.9053 65.1873 31.7013 64.7913 32.7253 64.7913C33.7493 64.7913 34.5453 65.1873 35.1133 65.9793C35.6813 66.7713 35.9653 67.8273 35.9653 69.1473C35.9653 70.4673 35.6813 71.5233 35.1133 72.3153ZM31.1533 71.5593C31.5213 72.1273 32.0453 72.4113 32.7253 72.4113C33.4053 72.4113 33.9293 72.1273 34.2973 71.5593C34.6733 70.9913 34.8613 70.1873 34.8613 69.1473C34.8613 68.1073 34.6733 67.3033 34.2973 66.7353C33.9293 66.1593 33.4053 65.8713 32.7253 65.8713C32.0453 65.8713 31.5213 66.1553 31.1533 66.7233C30.7853 67.2913 30.6013 68.0993 30.6013 69.1473C30.6013 70.1873 30.7853 70.9913 31.1533 71.5593ZM38.8255 68.5113C38.2815 68.5113 37.8295 68.3313 37.4695 67.9713C37.1095 67.6113 36.9295 67.1713 36.9295 66.6513C36.9295 66.1393 37.1095 65.7033 37.4695 65.3433C37.8375 64.9753 38.2895 64.7913 38.8255 64.7913C39.3695 64.7913 39.8215 64.9713 40.1815 65.3313C40.5415 65.6913 40.7215 66.1313 40.7215 66.6513C40.7215 67.1713 40.5415 67.6113 40.1815 67.9713C39.8295 68.3313 39.3775 68.5113 38.8255 68.5113ZM38.1295 67.3593C38.3135 67.5433 38.5455 67.6353 38.8255 67.6353C39.1055 67.6353 39.3335 67.5393 39.5095 67.3473C39.6935 67.1553 39.7855 66.9233 39.7855 66.6513C39.7855 66.3793 39.6935 66.1513 39.5095 65.9673C39.3335 65.7753 39.1055 65.6793 38.8255 65.6793C38.5455 65.6793 38.3135 65.7753 38.1295 65.9673C37.9535 66.1513 37.8655 66.3793 37.8655 66.6513C37.8655 66.9313 37.9535 67.1673 38.1295 67.3593ZM37.4935 72.1593L43.0735 65.9193L43.6615 66.2433L38.0695 72.4953L37.4935 72.1593ZM43.8055 72.9513C43.4455 73.3113 42.9935 73.4913 42.4495 73.4913C41.9055 73.4913 41.4535 73.3113 41.0935 72.9513C40.7335 72.5913 40.5535 72.1513 40.5535 71.6313C40.5535 71.1113 40.7335 70.6713 41.0935 70.3113C41.4535 69.9513 41.9055 69.7713 42.4495 69.7713C42.9935 69.7713 43.4455 69.9513 43.8055 70.3113C44.1655 70.6713 44.3455 71.1113 44.3455 71.6313C44.3455 72.1513 44.1655 72.5913 43.8055 72.9513ZM41.7535 72.3273C41.9375 72.5113 42.1695 72.6033 42.4495 72.6033C42.7295 72.6033 42.9575 72.5113 43.1335 72.3273C43.3175 72.1353 43.4095 71.9033 43.4095 71.6313C43.4095 71.3593 43.3175 71.1313 43.1335 70.9473C42.9575 70.7553 42.7295 70.6593 42.4495 70.6593C42.1695 70.6593 41.9375 70.7553 41.7535 70.9473C41.5775 71.1313 41.4895 71.3593 41.4895 71.6313C41.4895 71.9033 41.5775 72.1353 41.7535 72.3273Z" fill="#979797"/>
<path d="M28.6924 12.36V13.404H27.6724V15H26.5564V13.404H22.2724V12.36L25.2844 6.6H26.4844L23.4724 12.36H26.5564V9.984H27.6724V12.36H28.6924ZM35.1133 13.968C34.5453 14.76 33.7493 15.156 32.7253 15.156C31.7013 15.156 30.9053 14.76 30.3373 13.968C29.7693 13.176 29.4853 12.12 29.4853 10.8C29.4853 9.48 29.7693 8.424 30.3373 7.632C30.9053 6.84 31.7013 6.444 32.7253 6.444C33.7493 6.444 34.5453 6.84 35.1133 7.632C35.6813 8.424 35.9653 9.48 35.9653 10.8C35.9653 12.12 35.6813 13.176 35.1133 13.968ZM31.1533 13.212C31.5213 13.78 32.0453 14.064 32.7253 14.064C33.4053 14.064 33.9293 13.78 34.2973 13.212C34.6733 12.644 34.8613 11.84 34.8613 10.8C34.8613 9.76 34.6733 8.956 34.2973 8.388C33.9293 7.812 33.4053 7.524 32.7253 7.524C32.0453 7.524 31.5213 7.808 31.1533 8.376C30.7853 8.944 30.6013 9.752 30.6013 10.8C30.6013 11.84 30.7853 12.644 31.1533 13.212ZM38.8255 10.164C38.2815 10.164 37.8295 9.984 37.4695 9.624C37.1095 9.264 36.9295 8.824 36.9295 8.304C36.9295 7.792 37.1095 7.356 37.4695 6.996C37.8375 6.628 38.2895 6.444 38.8255 6.444C39.3695 6.444 39.8215 6.624 40.1815 6.984C40.5415 7.344 40.7215 7.784 40.7215 8.304C40.7215 8.824 40.5415 9.264 40.1815 9.624C39.8295 9.984 39.3775 10.164 38.8255 10.164ZM38.1295 9.012C38.3135 9.196 38.5455 9.288 38.8255 9.288C39.1055 9.288 39.3335 9.192 39.5095 9C39.6935 8.808 39.7855 8.576 39.7855 8.304C39.7855 8.032 39.6935 7.804 39.5095 7.62C39.3335 7.428 39.1055 7.332 38.8255 7.332C38.5455 7.332 38.3135 7.428 38.1295 7.62C37.9535 7.804 37.8655 8.032 37.8655 8.304C37.8655 8.584 37.9535 8.82 38.1295 9.012ZM37.4935 13.812L43.0735 7.572L43.6615 7.896L38.0695 14.148L37.4935 13.812ZM43.8055 14.604C43.4455 14.964 42.9935 15.144 42.4495 15.144C41.9055 15.144 41.4535 14.964 41.0935 14.604C40.7335 14.244 40.5535 13.804 40.5535 13.284C40.5535 12.764 40.7335 12.324 41.0935 11.964C41.4535 11.604 41.9055 11.424 42.4495 11.424C42.9935 11.424 43.4455 11.604 43.8055 11.964C44.1655 12.324 44.3455 12.764 44.3455 13.284C44.3455 13.804 44.1655 14.244 43.8055 14.604ZM41.7535 13.98C41.9375 14.164 42.1695 14.256 42.4495 14.256C42.7295 14.256 42.9575 14.164 43.1335 13.98C43.3175 13.788 43.4095 13.556 43.4095 13.284C43.4095 13.012 43.3175 12.784 43.1335 12.6C42.9575 12.408 42.7295 12.312 42.4495 12.312C42.1695 12.312 41.9375 12.408 41.7535 12.6C41.5775 12.784 41.4895 13.012 41.4895 13.284C41.4895 13.556 41.5775 13.788 41.7535 13.98Z" fill="#979797"/>
<path d="M53.4921 11.0659H668.882" stroke="#4D4D4D"/>
<path d="M55.884 70.12H664.018" stroke="#4D4D4D"/>
<path d="M89.71 146.046V147.174L85.942 148.722L89.71 150.258V151.386L84.754 149.226V148.206L89.71 146.046ZM95.7513 144.522H96.7113V152.922H95.6073V145.722L93.8193 146.25L93.5433 145.29L95.7513 144.522ZM102.549 148.578C102.957 148.786 103.277 149.066 103.509 149.418C103.741 149.77 103.857 150.17 103.857 150.618C103.857 151.386 103.589 151.99 103.053 152.43C102.517 152.862 101.825 153.078 100.977 153.078C100.137 153.078 99.4486 152.862 98.9126 152.43C98.3766 151.99 98.1086 151.386 98.1086 150.618C98.1086 150.17 98.2246 149.77 98.4566 149.418C98.6886 149.066 99.0086 148.786 99.4166 148.578C98.7286 148.146 98.3846 147.534 98.3846 146.742C98.3846 145.982 98.6366 145.398 99.1406 144.99C99.6526 144.574 100.265 144.366 100.977 144.366C101.697 144.366 102.309 144.574 102.813 144.99C103.325 145.398 103.581 145.982 103.581 146.742C103.581 147.534 103.237 148.146 102.549 148.578ZM100.977 145.434C100.553 145.434 100.197 145.546 99.9086 145.77C99.6286 145.994 99.4886 146.326 99.4886 146.766C99.4886 147.19 99.6326 147.522 99.9206 147.762C100.209 147.994 100.561 148.11 100.977 148.11C101.393 148.11 101.745 147.994 102.033 147.762C102.321 147.522 102.465 147.19 102.465 146.766C102.465 146.326 102.325 145.994 102.045 145.77C101.765 145.546 101.409 145.434 100.977 145.434ZM100.977 152.01C101.513 152.01 101.941 151.886 102.261 151.638C102.589 151.382 102.753 151.018 102.753 150.546C102.753 150.082 102.589 149.726 102.261 149.478C101.941 149.222 101.513 149.094 100.977 149.094C100.449 149.094 100.021 149.222 99.6926 149.478C99.3726 149.726 99.2126 150.082 99.2126 150.546C99.2126 151.018 99.3726 151.382 99.6926 151.638C100.021 151.886 100.449 152.01 100.977 152.01Z" fill="#979797"/>
<rect x="75.675" y="127.294" width="21.5272" height="1.64478" fill="#E786D7"/>
<rect x="97.2022" y="127.294" width="21.5272" height="1.64478" fill="#7F7FD5"/>
<path d="M165.31 145.733H166.27V154.133H165.166V146.933L163.378 147.461L163.102 146.501L165.31 145.733ZM172.107 149.789C172.515 149.997 172.835 150.277 173.067 150.629C173.299 150.981 173.415 151.381 173.415 151.829C173.415 152.597 173.147 153.201 172.611 153.641C172.075 154.073 171.383 154.289 170.535 154.289C169.695 154.289 169.007 154.073 168.471 153.641C167.935 153.201 167.667 152.597 167.667 151.829C167.667 151.381 167.783 150.981 168.015 150.629C168.247 150.277 168.567 149.997 168.975 149.789C168.287 149.357 167.943 148.745 167.943 147.953C167.943 147.193 168.195 146.609 168.699 146.201C169.211 145.785 169.823 145.577 170.535 145.577C171.255 145.577 171.867 145.785 172.371 146.201C172.883 146.609 173.139 147.193 173.139 147.953C173.139 148.745 172.795 149.357 172.107 149.789ZM170.535 146.645C170.111 146.645 169.755 146.757 169.467 146.981C169.187 147.205 169.047 147.537 169.047 147.977C169.047 148.401 169.191 148.733 169.479 148.973C169.767 149.205 170.119 149.321 170.535 149.321C170.951 149.321 171.303 149.205 171.591 148.973C171.879 148.733 172.023 148.401 172.023 147.977C172.023 147.537 171.883 147.205 171.603 146.981C171.323 146.757 170.967 146.645 170.535 146.645ZM170.535 153.221C171.071 153.221 171.499 153.097 171.819 152.849C172.147 152.593 172.311 152.229 172.311 151.757C172.311 151.293 172.147 150.937 171.819 150.689C171.499 150.433 171.071 150.305 170.535 150.305C170.007 150.305 169.579 150.433 169.251 150.689C168.931 150.937 168.771 151.293 168.771 151.757C168.771 152.229 168.931 152.593 169.251 152.849C169.579 153.097 170.007 153.221 170.535 153.221ZM174.767 150.953V149.945H179.147V150.953H174.767ZM180.475 154.133V153.221L183.439 150.197C184.231 149.405 184.627 148.725 184.627 148.157C184.627 147.685 184.483 147.317 184.195 147.053C183.907 146.789 183.555 146.657 183.139 146.657C182.347 146.657 181.771 147.033 181.411 147.785L180.475 147.233C180.739 146.689 181.103 146.277 181.567 145.997C182.039 145.717 182.559 145.577 183.127 145.577C183.831 145.577 184.443 145.809 184.963 146.273C185.483 146.737 185.743 147.361 185.743 148.145C185.743 148.993 185.243 149.917 184.243 150.917L182.095 153.053H185.899V154.133H180.475ZM188.689 145.733H189.649V154.133H188.545V146.933L186.757 147.461L186.481 146.501L188.689 145.733Z" fill="#979797"/>
<rect x="155.236" y="128.374" width="21.5272" height="1.64478" fill="#E786D7"/>
<path d="M176.763 75.96C176.763 73.1985 179.001 70.96 181.763 70.96H193.29C196.051 70.96 198.29 73.1985 198.29 75.96V130.019H176.763V75.96Z" fill="#7F7FD5"/>
<path d="M231.854 152.996V152.084L234.818 149.06C235.61 148.268 236.006 147.588 236.006 147.02C236.006 146.548 235.862 146.18 235.574 145.916C235.286 145.652 234.934 145.52 234.518 145.52C233.726 145.52 233.15 145.896 232.79 146.648L231.854 146.096C232.118 145.552 232.482 145.14 232.946 144.86C233.418 144.58 233.938 144.44 234.506 144.44C235.21 144.44 235.822 144.672 236.342 145.136C236.862 145.6 237.122 146.224 237.122 147.008C237.122 147.856 236.622 148.78 235.622 149.78L233.474 151.916H237.278V152.996H231.854ZM240.067 144.596H241.027V152.996H239.923V145.796L238.135 146.324L237.859 145.364L240.067 144.596ZM242.868 149.816V148.808H247.248V149.816H242.868ZM248.576 152.996V152.084L251.54 149.06C252.332 148.268 252.728 147.588 252.728 147.02C252.728 146.548 252.584 146.18 252.296 145.916C252.008 145.652 251.656 145.52 251.24 145.52C250.448 145.52 249.872 145.896 249.512 146.648L248.576 146.096C248.84 145.552 249.204 145.14 249.668 144.86C250.14 144.58 250.66 144.44 251.228 144.44C251.932 144.44 252.544 144.672 253.064 145.136C253.584 145.6 253.844 146.224 253.844 147.008C253.844 147.856 253.344 148.78 252.344 149.78L250.196 151.916H254V152.996H248.576ZM260.969 150.356V151.4H259.949V152.996H258.833V151.4H254.549V150.356L257.561 144.596H258.761L255.749 150.356H258.833V147.98H259.949V150.356H260.969Z" fill="#979797"/>
<rect x="224.796" y="126.917" width="21.5272" height="1.64478" fill="#E786D7"/>
<path d="M246.323 74.954C246.323 72.1926 248.561 69.954 251.323 69.954H262.85C265.611 69.954 267.85 72.1926 267.85 74.954V128.562H246.323V74.954Z" fill="#7F7FD5"/>
<path d="M310.699 153.6V152.688L313.663 149.664C314.455 148.872 314.851 148.192 314.851 147.624C314.851 147.152 314.707 146.784 314.419 146.52C314.131 146.256 313.779 146.124 313.363 146.124C312.571 146.124 311.995 146.5 311.635 147.252L310.699 146.7C310.963 146.156 311.327 145.744 311.791 145.464C312.263 145.184 312.783 145.044 313.351 145.044C314.055 145.044 314.667 145.276 315.187 145.74C315.707 146.204 315.967 146.828 315.967 147.612C315.967 148.46 315.467 149.384 314.467 150.384L312.319 152.52H316.123V153.6H310.699ZM323.093 150.96V152.004H322.073V153.6H320.957V152.004H316.673V150.96L319.685 145.2H320.885L317.873 150.96H320.957V148.584H322.073V150.96H323.093ZM324.245 150.42V149.412H328.625V150.42H324.245ZM329.953 153.6V152.688L332.917 149.664C333.709 148.872 334.105 148.192 334.105 147.624C334.105 147.152 333.961 146.784 333.673 146.52C333.385 146.256 333.033 146.124 332.617 146.124C331.825 146.124 331.249 146.5 330.889 147.252L329.953 146.7C330.217 146.156 330.581 145.744 331.045 145.464C331.517 145.184 332.037 145.044 332.605 145.044C333.309 145.044 333.921 145.276 334.441 145.74C334.961 146.204 335.221 146.828 335.221 147.612C335.221 148.46 334.721 149.384 333.721 150.384L331.573 152.52H335.377V153.6H329.953ZM335.831 145.2H341.075V146.196L338.015 153.6H336.851L339.887 146.256H335.831V145.2Z" fill="#979797"/>
<path d="M304.356 33.7096C304.356 30.9482 306.595 28.7096 309.356 28.7096H320.883C323.645 28.7096 325.883 30.9482 325.883 33.7096V129.486H304.356V33.7096Z" fill="#E786D7"/>
<path d="M325.887 74.954C325.887 72.1926 328.126 69.954 330.887 69.954H342.894C345.655 69.954 347.894 72.1926 347.894 74.954V129.306H325.887V74.954Z" fill="#7F7FD5"/>
<path d="M379.99 152.996V152.084L382.954 149.06C383.746 148.268 384.142 147.588 384.142 147.02C384.142 146.548 383.998 146.18 383.71 145.916C383.422 145.652 383.07 145.52 382.654 145.52C381.862 145.52 381.286 145.896 380.926 146.648L379.99 146.096C380.254 145.552 380.618 145.14 381.082 144.86C381.554 144.58 382.074 144.44 382.642 144.44C383.346 144.44 383.958 144.672 384.478 145.136C384.998 145.6 385.258 146.224 385.258 147.008C385.258 147.856 384.758 148.78 383.758 149.78L381.61 151.916H385.414V152.996H379.99ZM385.868 144.596H391.112V145.592L388.052 152.996H386.888L389.924 145.652H385.868V144.596ZM392.071 149.816V148.808H396.451V149.816H392.071ZM401.139 148.04C401.779 148.16 402.303 148.436 402.711 148.868C403.119 149.3 403.323 149.848 403.323 150.512C403.323 151.328 403.043 151.972 402.483 152.444C401.923 152.916 401.243 153.152 400.443 153.152C399.803 153.152 399.235 153.008 398.739 152.72C398.243 152.424 397.891 152 397.683 151.448L398.619 150.896C398.867 151.672 399.475 152.06 400.443 152.06C400.963 152.06 401.387 151.924 401.715 151.652C402.043 151.38 402.207 151 402.207 150.512C402.207 150.024 402.043 149.644 401.715 149.372C401.387 149.092 400.963 148.952 400.443 148.952H400.155L399.711 148.268L401.655 145.64H397.923V144.596H402.963V145.58L401.139 148.04ZM409.937 151.964C409.369 152.756 408.573 153.152 407.549 153.152C406.525 153.152 405.729 152.756 405.161 151.964C404.593 151.172 404.309 150.116 404.309 148.796C404.309 147.476 404.593 146.42 405.161 145.628C405.729 144.836 406.525 144.44 407.549 144.44C408.573 144.44 409.369 144.836 409.937 145.628C410.505 146.42 410.789 147.476 410.789 148.796C410.789 150.116 410.505 151.172 409.937 151.964ZM405.977 151.208C406.345 151.776 406.869 152.06 407.549 152.06C408.229 152.06 408.753 151.776 409.121 151.208C409.497 150.64 409.685 149.836 409.685 148.796C409.685 147.756 409.497 146.952 409.121 146.384C408.753 145.808 408.229 145.52 407.549 145.52C406.869 145.52 406.345 145.804 405.977 146.372C405.609 146.94 405.425 147.748 405.425 148.796C405.425 149.836 405.609 150.64 405.977 151.208Z" fill="#979797"/>
<path d="M373.916 74.954C373.916 72.1926 376.155 69.954 378.916 69.954H390.444C393.205 69.954 395.444 72.1926 395.444 74.954V129.013H373.916V74.954Z" fill="#E786D7"/>
<rect x="395.443" y="126.546" width="21.5272" height="1.64478" fill="#7F7FD5"/>
<path d="M461.277 147.966C461.917 148.086 462.441 148.362 462.849 148.794C463.257 149.226 463.461 149.774 463.461 150.438C463.461 151.254 463.181 151.898 462.621 152.37C462.061 152.842 461.381 153.078 460.581 153.078C459.941 153.078 459.373 152.934 458.877 152.646C458.381 152.35 458.029 151.926 457.821 151.374L458.757 150.822C459.005 151.598 459.613 151.986 460.581 151.986C461.101 151.986 461.525 151.85 461.853 151.578C462.181 151.306 462.345 150.926 462.345 150.438C462.345 149.95 462.181 149.57 461.853 149.298C461.525 149.018 461.101 148.878 460.581 148.878H460.293L459.849 148.194L461.793 145.566H458.061V144.522H463.101V145.506L461.277 147.966ZM470.075 151.89C469.507 152.682 468.711 153.078 467.687 153.078C466.663 153.078 465.867 152.682 465.299 151.89C464.731 151.098 464.447 150.042 464.447 148.722C464.447 147.402 464.731 146.346 465.299 145.554C465.867 144.762 466.663 144.366 467.687 144.366C468.711 144.366 469.507 144.762 470.075 145.554C470.643 146.346 470.927 147.402 470.927 148.722C470.927 150.042 470.643 151.098 470.075 151.89ZM466.115 151.134C466.483 151.702 467.007 151.986 467.687 151.986C468.367 151.986 468.891 151.702 469.259 151.134C469.635 150.566 469.823 149.762 469.823 148.722C469.823 147.682 469.635 146.878 469.259 146.31C468.891 145.734 468.367 145.446 467.687 145.446C467.007 145.446 466.483 145.73 466.115 146.298C465.747 146.866 465.563 147.674 465.563 148.722C465.563 149.762 465.747 150.566 466.115 151.134ZM472.366 149.742V148.734H476.746V149.742H472.366ZM481.434 147.966C482.074 148.086 482.598 148.362 483.006 148.794C483.414 149.226 483.618 149.774 483.618 150.438C483.618 151.254 483.338 151.898 482.778 152.37C482.218 152.842 481.538 153.078 480.738 153.078C480.098 153.078 479.53 152.934 479.034 152.646C478.538 152.35 478.186 151.926 477.978 151.374L478.914 150.822C479.162 151.598 479.77 151.986 480.738 151.986C481.258 151.986 481.682 151.85 482.01 151.578C482.338 151.306 482.502 150.926 482.502 150.438C482.502 149.95 482.338 149.57 482.01 149.298C481.682 149.018 481.258 148.878 480.738 148.878H480.45L480.006 148.194L481.95 145.566H478.218V144.522H483.258V145.506L481.434 147.966ZM487.245 147.798C488.037 147.798 488.705 148.034 489.249 148.506C489.801 148.97 490.077 149.614 490.077 150.438C490.077 151.254 489.797 151.898 489.237 152.37C488.677 152.842 487.997 153.078 487.197 153.078C486.557 153.078 485.985 152.926 485.481 152.622C484.977 152.31 484.625 151.862 484.425 151.278L485.373 150.738C485.485 151.146 485.701 151.458 486.021 151.674C486.341 151.882 486.733 151.986 487.197 151.986C487.725 151.986 488.153 151.85 488.481 151.578C488.809 151.306 488.973 150.926 488.973 150.438C488.973 149.95 488.809 149.57 488.481 149.298C488.153 149.018 487.733 148.878 487.221 148.878H484.845L485.157 144.522H489.753V145.566H486.165L486.021 147.798H487.245Z" fill="#979797"/>
<rect x="452.477" y="127.294" width="21.5272" height="1.64478" fill="#E786D7"/>
<rect x="474.004" y="127.294" width="21.5272" height="1.64478" fill="#7F7FD5"/>
<path d="M534.026 148.206C534.666 148.326 535.19 148.602 535.598 149.034C536.006 149.466 536.21 150.014 536.21 150.678C536.21 151.494 535.93 152.138 535.37 152.61C534.81 153.082 534.13 153.318 533.33 153.318C532.69 153.318 532.122 153.174 531.626 152.886C531.13 152.59 530.778 152.166 530.57 151.614L531.506 151.062C531.754 151.838 532.362 152.226 533.33 152.226C533.85 152.226 534.274 152.09 534.602 151.818C534.93 151.546 535.094 151.166 535.094 150.678C535.094 150.19 534.93 149.81 534.602 149.538C534.274 149.258 533.85 149.118 533.33 149.118H533.042L532.598 148.434L534.542 145.806H530.81V144.762H535.85V145.746L534.026 148.206ZM539.837 148.038C540.629 148.038 541.297 148.274 541.841 148.746C542.393 149.21 542.669 149.854 542.669 150.678C542.669 151.494 542.389 152.138 541.829 152.61C541.269 153.082 540.589 153.318 539.789 153.318C539.149 153.318 538.577 153.166 538.073 152.862C537.569 152.55 537.217 152.102 537.017 151.518L537.965 150.978C538.077 151.386 538.293 151.698 538.613 151.914C538.933 152.122 539.325 152.226 539.789 152.226C540.317 152.226 540.745 152.09 541.073 151.818C541.401 151.546 541.565 151.166 541.565 150.678C541.565 150.19 541.401 149.81 541.073 149.538C540.745 149.258 540.325 149.118 539.813 149.118H537.437L537.749 144.762H542.345V145.806H538.757L538.613 148.038H539.837ZM544.013 149.982V148.974H548.393V149.982H544.013ZM555.997 150.522V151.566H554.977V153.162H553.861V151.566H549.577V150.522L552.589 144.762H553.789L550.777 150.522H553.861V148.146H554.977V150.522H555.997ZM562.418 152.13C561.85 152.922 561.054 153.318 560.03 153.318C559.006 153.318 558.21 152.922 557.642 152.13C557.074 151.338 556.79 150.282 556.79 148.962C556.79 147.642 557.074 146.586 557.642 145.794C558.21 145.002 559.006 144.606 560.03 144.606C561.054 144.606 561.85 145.002 562.418 145.794C562.986 146.586 563.27 147.642 563.27 148.962C563.27 150.282 562.986 151.338 562.418 152.13ZM558.458 151.374C558.826 151.942 559.35 152.226 560.03 152.226C560.71 152.226 561.234 151.942 561.602 151.374C561.978 150.806 562.166 150.002 562.166 148.962C562.166 147.922 561.978 147.118 561.602 146.55C561.234 145.974 560.71 145.686 560.03 145.686C559.35 145.686 558.826 145.97 558.458 146.538C558.09 147.106 557.906 147.914 557.906 148.962C557.906 150.002 558.09 150.806 558.458 151.374Z" fill="#979797"/>
<path d="M522.037 104.127C522.037 101.365 524.275 99.1268 527.037 99.1268H538.564C541.325 99.1268 543.564 101.365 543.564 104.127V129.179H522.037V104.127Z" fill="#E786D7"/>
<rect x="553.564" y="127.534" width="21.5272" height="1.64478" fill="#7F7FD5"/>
<path d="M613.841 146.496L618.797 148.656V149.676L613.841 151.836V150.708L617.609 149.172L613.841 147.624V146.496ZM626.17 150.732V151.776H625.15V153.372H624.034V151.776H619.75V150.732L622.762 144.972H623.962L620.95 150.732H624.034V148.356H625.15V150.732H626.17ZM632.591 152.34C632.023 153.132 631.227 153.528 630.203 153.528C629.179 153.528 628.383 153.132 627.815 152.34C627.247 151.548 626.963 150.492 626.963 149.172C626.963 147.852 627.247 146.796 627.815 146.004C628.383 145.212 629.179 144.816 630.203 144.816C631.227 144.816 632.023 145.212 632.591 146.004C633.159 146.796 633.443 147.852 633.443 149.172C633.443 150.492 633.159 151.548 632.591 152.34ZM628.631 151.584C628.999 152.152 629.523 152.436 630.203 152.436C630.883 152.436 631.407 152.152 631.775 151.584C632.151 151.016 632.339 150.212 632.339 149.172C632.339 148.132 632.151 147.328 631.775 146.76C631.407 146.184 630.883 145.896 630.203 145.896C629.523 145.896 628.999 146.18 628.631 146.748C628.263 147.316 628.079 148.124 628.079 149.172C628.079 150.212 628.263 151.016 628.631 151.584Z" fill="#979797"/>
<rect x="605.055" y="127.745" width="21.5272" height="1.64478" fill="#E786D7"/>
<path d="M626.583 111.169C626.583 108.407 628.821 106.169 631.583 106.169H643.11C645.871 106.169 648.11 108.407 648.11 111.169V129.389H626.583V111.169Z" fill="#7F7FD5"/>
</svg>
