<svg width="308" height="148" viewBox="0 0 308 148" fill="none" xmlns="http://www.w3.org/2000/svg">
<g filter="url(#filter0_d_1_330)">
<rect x="171.089" y="22" width="132.911" height="10" rx="5" fill="#4D4D4D"/>
<rect x="171.089" y="22" width="12.3418" height="10" rx="5" fill="#7F7FD5"/>
<path d="M175.937 11.156C174.665 11.156 173.613 10.736 172.781 9.896C171.957 9.056 171.545 8.024 171.545 6.8C171.545 5.576 171.957 4.544 172.781 3.704C173.613 2.864 174.665 2.444 175.937 2.444C176.705 2.444 177.409 2.628 178.049 2.996C178.697 3.364 179.201 3.86 179.561 4.484L178.589 5.048C178.349 4.584 177.989 4.216 177.509 3.944C177.037 3.664 176.513 3.524 175.937 3.524C174.969 3.524 174.177 3.836 173.561 4.46C172.953 5.084 172.649 5.864 172.649 6.8C172.649 7.728 172.953 8.504 173.561 9.128C174.177 9.752 174.969 10.064 175.937 10.064C176.513 10.064 177.037 9.928 177.509 9.656C177.989 9.376 178.349 9.008 178.589 8.552L179.561 9.104C179.209 9.728 178.709 10.228 178.061 10.604C177.413 10.972 176.705 11.156 175.937 11.156ZM183.74 4.844C184.444 4.844 185.008 5.068 185.432 5.516C185.856 5.956 186.068 6.556 186.068 7.316V11H185.024V7.376C185.024 6.888 184.892 6.512 184.628 6.248C184.364 5.976 184 5.84 183.536 5.84C183.016 5.84 182.596 6.004 182.276 6.332C181.956 6.652 181.796 7.148 181.796 7.82V11H180.752V2.6H181.796V5.864C182.22 5.184 182.868 4.844 183.74 4.844ZM188.053 3.908C187.853 3.908 187.685 3.84 187.549 3.704C187.413 3.568 187.345 3.404 187.345 3.212C187.345 3.02 187.413 2.856 187.549 2.72C187.685 2.576 187.853 2.504 188.053 2.504C188.245 2.504 188.409 2.576 188.545 2.72C188.681 2.856 188.749 3.02 188.749 3.212C188.749 3.404 188.681 3.568 188.545 3.704C188.409 3.84 188.245 3.908 188.053 3.908ZM187.525 11V5H188.569V11H187.525ZM193.15 4.844C193.854 4.844 194.418 5.068 194.842 5.516C195.266 5.956 195.478 6.556 195.478 7.316V11H194.434V7.376C194.434 6.888 194.302 6.512 194.038 6.248C193.774 5.976 193.41 5.84 192.946 5.84C192.426 5.84 192.006 6.004 191.686 6.332C191.366 6.652 191.206 7.148 191.206 7.82V11H190.162V5H191.206V5.864C191.63 5.184 192.278 4.844 193.15 4.844ZM201.903 5H202.947V11H201.903V9.968C201.383 10.76 200.627 11.156 199.635 11.156C198.795 11.156 198.079 10.852 197.487 10.244C196.895 9.628 196.599 8.88 196.599 8C196.599 7.12 196.895 6.376 197.487 5.768C198.079 5.152 198.795 4.844 199.635 4.844C200.627 4.844 201.383 5.24 201.903 6.032V5ZM199.767 10.148C200.375 10.148 200.883 9.944 201.291 9.536C201.699 9.12 201.903 8.608 201.903 8C201.903 7.392 201.699 6.884 201.291 6.476C200.883 6.06 200.375 5.852 199.767 5.852C199.167 5.852 198.663 6.06 198.255 6.476C197.847 6.884 197.643 7.392 197.643 8C197.643 8.608 197.847 9.12 198.255 9.536C198.663 9.944 199.167 10.148 199.767 10.148Z" fill="#CACACA"/>
<path d="M263.806 9.968C263.238 10.76 262.442 11.156 261.418 11.156C260.394 11.156 259.598 10.76 259.03 9.968C258.462 9.176 258.178 8.12 258.178 6.8C258.178 5.48 258.462 4.424 259.03 3.632C259.598 2.84 260.394 2.444 261.418 2.444C262.442 2.444 263.238 2.84 263.806 3.632C264.374 4.424 264.658 5.48 264.658 6.8C264.658 8.12 264.374 9.176 263.806 9.968ZM259.846 9.212C260.214 9.78 260.738 10.064 261.418 10.064C262.098 10.064 262.622 9.78 262.99 9.212C263.366 8.644 263.554 7.84 263.554 6.8C263.554 5.76 263.366 4.956 262.99 4.388C262.622 3.812 262.098 3.524 261.418 3.524C260.738 3.524 260.214 3.808 259.846 4.376C259.478 4.944 259.294 5.752 259.294 6.8C259.294 7.84 259.478 8.644 259.846 9.212ZM267.186 9.764L266.406 12.68H265.506L265.986 9.764H267.186ZM268.301 11V10.088L271.265 7.064C272.057 6.272 272.453 5.592 272.453 5.024C272.453 4.552 272.309 4.184 272.021 3.92C271.733 3.656 271.381 3.524 270.965 3.524C270.173 3.524 269.597 3.9 269.237 4.652L268.301 4.1C268.565 3.556 268.929 3.144 269.393 2.864C269.865 2.584 270.385 2.444 270.953 2.444C271.657 2.444 272.269 2.676 272.789 3.14C273.309 3.604 273.569 4.228 273.569 5.012C273.569 5.86 273.069 6.784 272.069 7.784L269.921 9.92H273.725V11H268.301ZM277.214 5.504C278.054 5.504 278.746 5.768 279.29 6.296C279.834 6.816 280.106 7.492 280.106 8.324C280.106 9.156 279.834 9.836 279.29 10.364C278.746 10.892 278.054 11.156 277.214 11.156C276.366 11.156 275.67 10.892 275.126 10.364C274.59 9.836 274.322 9.156 274.322 8.324C274.322 7.676 274.49 7.116 274.826 6.644L277.526 2.6H278.798L276.818 5.528C276.994 5.512 277.126 5.504 277.214 5.504ZM275.918 9.608C276.254 9.928 276.686 10.088 277.214 10.088C277.742 10.088 278.17 9.928 278.498 9.608C278.834 9.28 279.002 8.852 279.002 8.324C279.002 7.796 278.834 7.372 278.498 7.052C278.17 6.732 277.742 6.572 277.214 6.572C276.678 6.572 276.246 6.732 275.918 7.052C275.59 7.372 275.426 7.796 275.426 8.324C275.426 8.852 275.59 9.28 275.918 9.608ZM282.636 6.164C282.092 6.164 281.64 5.984 281.28 5.624C280.92 5.264 280.74 4.824 280.74 4.304C280.74 3.792 280.92 3.356 281.28 2.996C281.648 2.628 282.1 2.444 282.636 2.444C283.18 2.444 283.632 2.624 283.992 2.984C284.352 3.344 284.532 3.784 284.532 4.304C284.532 4.824 284.352 5.264 283.992 5.624C283.64 5.984 283.188 6.164 282.636 6.164ZM281.94 5.012C282.124 5.196 282.356 5.288 282.636 5.288C282.916 5.288 283.144 5.192 283.32 5C283.504 4.808 283.596 4.576 283.596 4.304C283.596 4.032 283.504 3.804 283.32 3.62C283.144 3.428 282.916 3.332 282.636 3.332C282.356 3.332 282.124 3.428 281.94 3.62C281.764 3.804 281.676 4.032 281.676 4.304C281.676 4.584 281.764 4.82 281.94 5.012ZM281.304 9.812L286.884 3.572L287.472 3.896L281.88 10.148L281.304 9.812ZM287.616 10.604C287.256 10.964 286.804 11.144 286.26 11.144C285.716 11.144 285.264 10.964 284.904 10.604C284.544 10.244 284.364 9.804 284.364 9.284C284.364 8.764 284.544 8.324 284.904 7.964C285.264 7.604 285.716 7.424 286.26 7.424C286.804 7.424 287.256 7.604 287.616 7.964C287.976 8.324 288.156 8.764 288.156 9.284C288.156 9.804 287.976 10.244 287.616 10.604ZM285.564 9.98C285.748 10.164 285.98 10.256 286.26 10.256C286.54 10.256 286.768 10.164 286.944 9.98C287.128 9.788 287.22 9.556 287.22 9.284C287.22 9.012 287.128 8.784 286.944 8.6C286.768 8.408 286.54 8.312 286.26 8.312C285.98 8.312 285.748 8.408 285.564 8.6C285.388 8.784 285.3 9.012 285.3 9.284C285.3 9.556 285.388 9.788 285.564 9.98Z" fill="#979797"/>
<rect x="4" y="77" width="132.911" height="10" rx="5" fill="#4D4D4D"/>
<rect x="4" y="77" width="4.74684" height="10" rx="2.37342" fill="#7F7FD5"/>
<path d="M10.216 64.352C9.632 64.888 8.876 65.156 7.948 65.156C7.02 65.156 6.26 64.888 5.668 64.352C5.084 63.808 4.792 63.084 4.792 62.18V56.6H5.908V62.132C5.908 62.724 6.084 63.196 6.436 63.548C6.788 63.892 7.292 64.064 7.948 64.064C8.604 64.064 9.108 63.892 9.46 63.548C9.812 63.196 9.988 62.724 9.988 62.132V56.6H11.092V62.18C11.092 63.084 10.8 63.808 10.216 64.352ZM17.7664 65H16.4704L13.7344 62.156V65H12.6904V56.6H13.7344V61.652L16.3264 59H17.6704L14.8024 61.904L17.7664 65ZM19.7813 60.008C20.1253 59.264 20.7493 58.892 21.6533 58.892V59.984C21.1413 59.96 20.7013 60.096 20.3333 60.392C19.9653 60.688 19.7813 61.164 19.7813 61.82V65H18.7373V59H19.7813V60.008ZM27.3147 59H28.3587V65H27.3147V63.968C26.7947 64.76 26.0387 65.156 25.0467 65.156C24.2067 65.156 23.4907 64.852 22.8987 64.244C22.3067 63.628 22.0107 62.88 22.0107 62C22.0107 61.12 22.3067 60.376 22.8987 59.768C23.4907 59.152 24.2067 58.844 25.0467 58.844C26.0387 58.844 26.7947 59.24 27.3147 60.032V59ZM25.1787 64.148C25.7867 64.148 26.2947 63.944 26.7027 63.536C27.1107 63.12 27.3147 62.608 27.3147 62C27.3147 61.392 27.1107 60.884 26.7027 60.476C26.2947 60.06 25.7867 59.852 25.1787 59.852C24.5787 59.852 24.0747 60.06 23.6667 60.476C23.2587 60.884 23.0547 61.392 23.0547 62C23.0547 62.608 23.2587 63.12 23.6667 63.536C24.0747 63.944 24.5787 64.148 25.1787 64.148ZM30.4684 57.908C30.2684 57.908 30.1004 57.84 29.9644 57.704C29.8284 57.568 29.7604 57.404 29.7604 57.212C29.7604 57.02 29.8284 56.856 29.9644 56.72C30.1004 56.576 30.2684 56.504 30.4684 56.504C30.6604 56.504 30.8244 56.576 30.9604 56.72C31.0964 56.856 31.1644 57.02 31.1644 57.212C31.1644 57.404 31.0964 57.568 30.9604 57.704C30.8244 57.84 30.6604 57.908 30.4684 57.908ZM29.9404 65V59H30.9844V65H29.9404ZM35.5652 58.844C36.2692 58.844 36.8332 59.068 37.2572 59.516C37.6812 59.956 37.8932 60.556 37.8932 61.316V65H36.8492V61.376C36.8492 60.888 36.7172 60.512 36.4532 60.248C36.1892 59.976 35.8252 59.84 35.3612 59.84C34.8412 59.84 34.4212 60.004 34.1012 60.332C33.7812 60.652 33.6212 61.148 33.6212 61.82V65H32.5772V59H33.6212V59.864C34.0452 59.184 34.6932 58.844 35.5652 58.844ZM40.0826 62.48C40.1866 63.016 40.4306 63.432 40.8146 63.728C41.2066 64.024 41.6866 64.172 42.2546 64.172C43.0466 64.172 43.6226 63.88 43.9826 63.296L44.8706 63.8C44.2866 64.704 43.4066 65.156 42.2306 65.156C41.2786 65.156 40.5026 64.86 39.9026 64.268C39.3106 63.668 39.0146 62.912 39.0146 62C39.0146 61.096 39.3066 60.344 39.8906 59.744C40.4746 59.144 41.2306 58.844 42.1586 58.844C43.0386 58.844 43.7546 59.156 44.3066 59.78C44.8666 60.396 45.1466 61.14 45.1466 62.012C45.1466 62.164 45.1346 62.32 45.1106 62.48H40.0826ZM42.1586 59.828C41.5986 59.828 41.1346 59.988 40.7666 60.308C40.3986 60.62 40.1706 61.04 40.0826 61.568H44.0906C44.0026 61 43.7786 60.568 43.4186 60.272C43.0586 59.976 42.6386 59.828 42.1586 59.828Z" fill="#CACACA"/>
<path d="M102.988 63.968C102.42 64.76 101.624 65.156 100.6 65.156C99.5764 65.156 98.7804 64.76 98.2124 63.968C97.6444 63.176 97.3604 62.12 97.3604 60.8C97.3604 59.48 97.6444 58.424 98.2124 57.632C98.7804 56.84 99.5764 56.444 100.6 56.444C101.624 56.444 102.42 56.84 102.988 57.632C103.556 58.424 103.84 59.48 103.84 60.8C103.84 62.12 103.556 63.176 102.988 63.968ZM99.0284 63.212C99.3964 63.78 99.9204 64.064 100.6 64.064C101.28 64.064 101.804 63.78 102.172 63.212C102.548 62.644 102.736 61.84 102.736 60.8C102.736 59.76 102.548 58.956 102.172 58.388C101.804 57.812 101.28 57.524 100.6 57.524C99.9204 57.524 99.3964 57.808 99.0284 58.376C98.6604 58.944 98.4764 59.752 98.4764 60.8C98.4764 61.84 98.6604 62.644 99.0284 63.212ZM106.368 63.764L105.588 66.68H104.688L105.168 63.764H106.368ZM107.483 65V64.088L110.447 61.064C111.239 60.272 111.635 59.592 111.635 59.024C111.635 58.552 111.491 58.184 111.203 57.92C110.915 57.656 110.563 57.524 110.147 57.524C109.355 57.524 108.779 57.9 108.419 58.652L107.483 58.1C107.747 57.556 108.111 57.144 108.575 56.864C109.047 56.584 109.567 56.444 110.135 56.444C110.839 56.444 111.451 56.676 111.971 57.14C112.491 57.604 112.751 58.228 112.751 59.012C112.751 59.86 112.251 60.784 111.251 61.784L109.103 63.92H112.907V65H107.483ZM119.43 63.968C118.862 64.76 118.066 65.156 117.042 65.156C116.018 65.156 115.222 64.76 114.654 63.968C114.086 63.176 113.802 62.12 113.802 60.8C113.802 59.48 114.086 58.424 114.654 57.632C115.222 56.84 116.018 56.444 117.042 56.444C118.066 56.444 118.862 56.84 119.43 57.632C119.998 58.424 120.282 59.48 120.282 60.8C120.282 62.12 119.998 63.176 119.43 63.968ZM115.47 63.212C115.838 63.78 116.362 64.064 117.042 64.064C117.722 64.064 118.246 63.78 118.614 63.212C118.99 62.644 119.178 61.84 119.178 60.8C119.178 59.76 118.99 58.956 118.614 58.388C118.246 57.812 117.722 57.524 117.042 57.524C116.362 57.524 115.838 57.808 115.47 58.376C115.102 58.944 114.918 59.752 114.918 60.8C114.918 61.84 115.102 62.644 115.47 63.212ZM123.142 60.164C122.598 60.164 122.146 59.984 121.786 59.624C121.426 59.264 121.246 58.824 121.246 58.304C121.246 57.792 121.426 57.356 121.786 56.996C122.154 56.628 122.606 56.444 123.142 56.444C123.686 56.444 124.138 56.624 124.498 56.984C124.858 57.344 125.038 57.784 125.038 58.304C125.038 58.824 124.858 59.264 124.498 59.624C124.146 59.984 123.694 60.164 123.142 60.164ZM122.446 59.012C122.63 59.196 122.862 59.288 123.142 59.288C123.422 59.288 123.65 59.192 123.826 59C124.01 58.808 124.102 58.576 124.102 58.304C124.102 58.032 124.01 57.804 123.826 57.62C123.65 57.428 123.422 57.332 123.142 57.332C122.862 57.332 122.63 57.428 122.446 57.62C122.27 57.804 122.182 58.032 122.182 58.304C122.182 58.584 122.27 58.82 122.446 59.012ZM121.81 63.812L127.39 57.572L127.978 57.896L122.386 64.148L121.81 63.812ZM128.122 64.604C127.762 64.964 127.31 65.144 126.766 65.144C126.222 65.144 125.77 64.964 125.41 64.604C125.05 64.244 124.87 63.804 124.87 63.284C124.87 62.764 125.05 62.324 125.41 61.964C125.77 61.604 126.222 61.424 126.766 61.424C127.31 61.424 127.762 61.604 128.122 61.964C128.482 62.324 128.662 62.764 128.662 63.284C128.662 63.804 128.482 64.244 128.122 64.604ZM126.07 63.98C126.254 64.164 126.486 64.256 126.766 64.256C127.046 64.256 127.274 64.164 127.45 63.98C127.634 63.788 127.726 63.556 127.726 63.284C127.726 63.012 127.634 62.784 127.45 62.6C127.274 62.408 127.046 62.312 126.766 62.312C126.486 62.312 126.254 62.408 126.07 62.6C125.894 62.784 125.806 63.012 125.806 63.284C125.806 63.556 125.894 63.788 126.07 63.98Z" fill="#979797"/>
<rect x="4" y="23" width="132.911" height="10" rx="5" fill="#4D4D4D"/>
<rect x="4" y="23" width="121.519" height="10" rx="5" fill="#7F7FD5"/>
<path d="M9.88 11L7.996 7.784H6.016V11H4.9V2.6H8.26C8.98 2.6 9.596 2.856 10.108 3.368C10.62 3.872 10.876 4.484 10.876 5.204C10.876 5.748 10.712 6.244 10.384 6.692C10.064 7.14 9.648 7.456 9.136 7.64L11.116 11H9.88ZM6.016 3.644V6.776H8.26C8.676 6.776 9.028 6.624 9.316 6.32C9.612 6.008 9.76 5.636 9.76 5.204C9.76 4.772 9.612 4.404 9.316 4.1C9.028 3.796 8.676 3.644 8.26 3.644H6.016ZM16.139 5H17.183V11H16.139V10.136C15.715 10.816 15.067 11.156 14.195 11.156C13.491 11.156 12.927 10.936 12.503 10.496C12.079 10.048 11.867 9.444 11.867 8.684V5H12.911V8.624C12.911 9.112 13.043 9.492 13.307 9.764C13.571 10.028 13.935 10.16 14.399 10.16C14.919 10.16 15.339 10 15.659 9.68C15.979 9.352 16.139 8.852 16.139 8.18V5ZM19.6608 6.62C19.6608 6.852 19.7768 7.04 20.0088 7.184C20.2408 7.32 20.5208 7.432 20.8488 7.52C21.1768 7.6 21.5048 7.696 21.8328 7.808C22.1608 7.912 22.4408 8.096 22.6728 8.36C22.9048 8.616 23.0208 8.948 23.0208 9.356C23.0208 9.9 22.8088 10.336 22.3848 10.664C21.9688 10.992 21.4328 11.156 20.7768 11.156C20.1928 11.156 19.6928 11.028 19.2768 10.772C18.8608 10.516 18.5648 10.176 18.3888 9.752L19.2888 9.236C19.3848 9.524 19.5648 9.752 19.8288 9.92C20.0928 10.088 20.4088 10.172 20.7768 10.172C21.1208 10.172 21.4048 10.108 21.6288 9.98C21.8528 9.844 21.9648 9.636 21.9648 9.356C21.9648 9.124 21.8488 8.94 21.6168 8.804C21.3848 8.66 21.1048 8.548 20.7768 8.468C20.4488 8.38 20.1208 8.28 19.7928 8.168C19.4648 8.056 19.1848 7.872 18.9528 7.616C18.7208 7.36 18.6048 7.032 18.6048 6.632C18.6048 6.112 18.8048 5.684 19.2048 5.348C19.6128 5.012 20.1208 4.844 20.7288 4.844C21.2168 4.844 21.6488 4.956 22.0248 5.18C22.4088 5.396 22.6968 5.7 22.8888 6.092L22.0128 6.584C21.7968 6.072 21.3688 5.816 20.7288 5.816C20.4328 5.816 20.1808 5.888 19.9728 6.032C19.7648 6.168 19.6608 6.364 19.6608 6.62ZM24.7818 6.62C24.7818 6.852 24.8978 7.04 25.1298 7.184C25.3618 7.32 25.6418 7.432 25.9698 7.52C26.2978 7.6 26.6258 7.696 26.9538 7.808C27.2818 7.912 27.5618 8.096 27.7938 8.36C28.0258 8.616 28.1418 8.948 28.1418 9.356C28.1418 9.9 27.9298 10.336 27.5058 10.664C27.0898 10.992 26.5538 11.156 25.8978 11.156C25.3138 11.156 24.8138 11.028 24.3978 10.772C23.9818 10.516 23.6858 10.176 23.5098 9.752L24.4098 9.236C24.5058 9.524 24.6858 9.752 24.9498 9.92C25.2138 10.088 25.5298 10.172 25.8978 10.172C26.2418 10.172 26.5258 10.108 26.7498 9.98C26.9738 9.844 27.0858 9.636 27.0858 9.356C27.0858 9.124 26.9698 8.94 26.7378 8.804C26.5058 8.66 26.2258 8.548 25.8978 8.468C25.5698 8.38 25.2418 8.28 24.9138 8.168C24.5858 8.056 24.3058 7.872 24.0738 7.616C23.8418 7.36 23.7258 7.032 23.7258 6.632C23.7258 6.112 23.9258 5.684 24.3258 5.348C24.7338 5.012 25.2418 4.844 25.8498 4.844C26.3378 4.844 26.7698 4.956 27.1458 5.18C27.5298 5.396 27.8178 5.7 28.0098 6.092L27.1338 6.584C26.9178 6.072 26.4898 5.816 25.8498 5.816C25.5538 5.816 25.3018 5.888 25.0938 6.032C24.8858 6.168 24.7818 6.364 24.7818 6.62ZM29.8473 3.908C29.6473 3.908 29.4793 3.84 29.3433 3.704C29.2073 3.568 29.1393 3.404 29.1393 3.212C29.1393 3.02 29.2073 2.856 29.3433 2.72C29.4793 2.576 29.6473 2.504 29.8473 2.504C30.0393 2.504 30.2033 2.576 30.3393 2.72C30.4753 2.856 30.5433 3.02 30.5433 3.212C30.5433 3.404 30.4753 3.568 30.3393 3.704C30.2033 3.84 30.0393 3.908 29.8473 3.908ZM29.3193 11V5H30.3633V11H29.3193ZM36.9241 5H37.9681V11H36.9241V9.968C36.4041 10.76 35.6481 11.156 34.6561 11.156C33.8161 11.156 33.1001 10.852 32.5081 10.244C31.9161 9.628 31.6201 8.88 31.6201 8C31.6201 7.12 31.9161 6.376 32.5081 5.768C33.1001 5.152 33.8161 4.844 34.6561 4.844C35.6481 4.844 36.4041 5.24 36.9241 6.032V5ZM34.7881 10.148C35.3961 10.148 35.9041 9.944 36.3121 9.536C36.7201 9.12 36.9241 8.608 36.9241 8C36.9241 7.392 36.7201 6.884 36.3121 6.476C35.9041 6.06 35.3961 5.852 34.7881 5.852C34.1881 5.852 33.6841 6.06 33.2761 6.476C32.8681 6.884 32.6641 7.392 32.6641 8C32.6641 8.608 32.8681 9.12 33.2761 9.536C33.6841 9.944 34.1881 10.148 34.7881 10.148Z" fill="#CACACA"/>
<path d="M114.12 5.264C114.12 5.912 113.948 6.476 113.604 6.956H113.616L110.904 11H109.644L111.636 8.06C111.46 8.076 111.324 8.084 111.228 8.084C110.38 8.084 109.684 7.824 109.14 7.304C108.604 6.776 108.336 6.096 108.336 5.264C108.336 4.432 108.604 3.756 109.14 3.236C109.684 2.708 110.38 2.444 111.228 2.444C112.076 2.444 112.768 2.708 113.304 3.236C113.848 3.756 114.12 4.432 114.12 5.264ZM109.932 3.992C109.604 4.312 109.44 4.736 109.44 5.264C109.44 5.792 109.604 6.22 109.932 6.548C110.268 6.868 110.7 7.028 111.228 7.028C111.756 7.028 112.184 6.868 112.512 6.548C112.848 6.22 113.016 5.792 113.016 5.264C113.016 4.736 112.852 4.312 112.524 3.992C112.196 3.672 111.764 3.512 111.228 3.512C110.7 3.512 110.268 3.672 109.932 3.992ZM120.931 8.36V9.404H119.911V11H118.795V9.404H114.511V8.36L117.523 2.6H118.723L115.711 8.36H118.795V5.984H119.911V8.36H120.931ZM123.142 6.164C122.598 6.164 122.146 5.984 121.786 5.624C121.426 5.264 121.246 4.824 121.246 4.304C121.246 3.792 121.426 3.356 121.786 2.996C122.154 2.628 122.606 2.444 123.142 2.444C123.686 2.444 124.138 2.624 124.498 2.984C124.858 3.344 125.038 3.784 125.038 4.304C125.038 4.824 124.858 5.264 124.498 5.624C124.146 5.984 123.694 6.164 123.142 6.164ZM122.446 5.012C122.63 5.196 122.862 5.288 123.142 5.288C123.422 5.288 123.65 5.192 123.826 5C124.01 4.808 124.102 4.576 124.102 4.304C124.102 4.032 124.01 3.804 123.826 3.62C123.65 3.428 123.422 3.332 123.142 3.332C122.862 3.332 122.63 3.428 122.446 3.62C122.27 3.804 122.182 4.032 122.182 4.304C122.182 4.584 122.27 4.82 122.446 5.012ZM121.81 9.812L127.39 3.572L127.978 3.896L122.386 10.148L121.81 9.812ZM128.122 10.604C127.762 10.964 127.31 11.144 126.766 11.144C126.222 11.144 125.77 10.964 125.41 10.604C125.05 10.244 124.87 9.804 124.87 9.284C124.87 8.764 125.05 8.324 125.41 7.964C125.77 7.604 126.222 7.424 126.766 7.424C127.31 7.424 127.762 7.604 128.122 7.964C128.482 8.324 128.662 8.764 128.662 9.284C128.662 9.804 128.482 10.244 128.122 10.604ZM126.07 9.98C126.254 10.164 126.486 10.256 126.766 10.256C127.046 10.256 127.274 10.164 127.45 9.98C127.634 9.788 127.726 9.556 127.726 9.284C127.726 9.012 127.634 8.784 127.45 8.6C127.274 8.408 127.046 8.312 126.766 8.312C126.486 8.312 126.254 8.408 126.07 8.6C125.894 8.784 125.806 9.012 125.806 9.284C125.806 9.556 125.894 9.788 126.07 9.98Z" fill="#979797"/>
<rect x="171.089" y="76" width="132.911" height="10" rx="5" fill="#4D4D4D"/>
<rect x="171.089" y="76" width="4.74684" height="10" rx="2.37342" fill="#7F7FD5"/>
<path d="M177.305 63.352C176.721 63.888 175.965 64.156 175.037 64.156C174.109 64.156 173.349 63.888 172.757 63.352C172.173 62.808 171.881 62.084 171.881 61.18V55.6H172.997V61.132C172.997 61.724 173.173 62.196 173.525 62.548C173.877 62.892 174.381 63.064 175.037 63.064C175.693 63.064 176.197 62.892 176.549 62.548C176.901 62.196 177.077 61.724 177.077 61.132V55.6H178.181V61.18C178.181 62.084 177.889 62.808 177.305 63.352ZM182.599 64.156C181.815 64.156 181.143 63.972 180.583 63.604C180.031 63.236 179.643 62.732 179.419 62.092L180.379 61.54C180.707 62.556 181.455 63.064 182.623 63.064C183.199 63.064 183.639 62.948 183.943 62.716C184.247 62.476 184.399 62.16 184.399 61.768C184.399 61.368 184.247 61.068 183.943 60.868C183.639 60.668 183.131 60.456 182.419 60.232C182.067 60.12 181.799 60.032 181.615 59.968C181.431 59.896 181.199 59.792 180.919 59.656C180.647 59.512 180.443 59.368 180.307 59.224C180.171 59.072 180.047 58.876 179.935 58.636C179.831 58.396 179.779 58.124 179.779 57.82C179.779 57.092 180.035 56.516 180.547 56.092C181.059 55.66 181.683 55.444 182.419 55.444C183.083 55.444 183.659 55.612 184.147 55.948C184.643 56.284 185.015 56.728 185.263 57.28L184.327 57.82C183.967 56.956 183.331 56.524 182.419 56.524C181.963 56.524 181.595 56.636 181.315 56.86C181.035 57.084 180.895 57.388 180.895 57.772C180.895 58.14 181.027 58.42 181.291 58.612C181.555 58.804 182.011 59.004 182.659 59.212C182.891 59.284 183.055 59.336 183.151 59.368C183.247 59.4 183.395 59.456 183.595 59.536C183.803 59.616 183.955 59.68 184.051 59.728C184.147 59.776 184.275 59.844 184.435 59.932C184.603 60.02 184.727 60.104 184.807 60.184C184.887 60.264 184.979 60.364 185.083 60.484C185.195 60.596 185.275 60.712 185.323 60.832C185.371 60.952 185.411 61.092 185.443 61.252C185.483 61.404 185.503 61.568 185.503 61.744C185.503 62.48 185.235 63.068 184.699 63.508C184.163 63.94 183.463 64.156 182.599 64.156ZM192.228 64L191.544 62.116H187.764L187.08 64H185.892L189.024 55.6H190.284L193.416 64H192.228ZM188.148 61.072H191.16L189.648 56.932L188.148 61.072Z" fill="#CACACA"/>
<path d="M262.482 62.968C261.914 63.76 261.118 64.156 260.094 64.156C259.07 64.156 258.274 63.76 257.706 62.968C257.138 62.176 256.854 61.12 256.854 59.8C256.854 58.48 257.138 57.424 257.706 56.632C258.274 55.84 259.07 55.444 260.094 55.444C261.118 55.444 261.914 55.84 262.482 56.632C263.05 57.424 263.334 58.48 263.334 59.8C263.334 61.12 263.05 62.176 262.482 62.968ZM258.522 62.212C258.89 62.78 259.414 63.064 260.094 63.064C260.774 63.064 261.298 62.78 261.666 62.212C262.042 61.644 262.23 60.84 262.23 59.8C262.23 58.76 262.042 57.956 261.666 57.388C261.298 56.812 260.774 56.524 260.094 56.524C259.414 56.524 258.89 56.808 258.522 57.376C258.154 57.944 257.97 58.752 257.97 59.8C257.97 60.84 258.154 61.644 258.522 62.212ZM265.861 62.764L265.081 65.68H264.181L264.661 62.764H265.861ZM266.977 64V63.088L269.941 60.064C270.733 59.272 271.129 58.592 271.129 58.024C271.129 57.552 270.985 57.184 270.697 56.92C270.409 56.656 270.057 56.524 269.641 56.524C268.849 56.524 268.273 56.9 267.913 57.652L266.977 57.1C267.241 56.556 267.605 56.144 268.069 55.864C268.541 55.584 269.061 55.444 269.629 55.444C270.333 55.444 270.945 55.676 271.465 56.14C271.985 56.604 272.245 57.228 272.245 58.012C272.245 58.86 271.745 59.784 270.745 60.784L268.597 62.92H272.401V64H266.977ZM278.923 62.968C278.355 63.76 277.559 64.156 276.535 64.156C275.511 64.156 274.715 63.76 274.147 62.968C273.579 62.176 273.295 61.12 273.295 59.8C273.295 58.48 273.579 57.424 274.147 56.632C274.715 55.84 275.511 55.444 276.535 55.444C277.559 55.444 278.355 55.84 278.923 56.632C279.491 57.424 279.775 58.48 279.775 59.8C279.775 61.12 279.491 62.176 278.923 62.968ZM274.963 62.212C275.331 62.78 275.855 63.064 276.535 63.064C277.215 63.064 277.739 62.78 278.107 62.212C278.483 61.644 278.671 60.84 278.671 59.8C278.671 58.76 278.483 57.956 278.107 57.388C277.739 56.812 277.215 56.524 276.535 56.524C275.855 56.524 275.331 56.808 274.963 57.376C274.595 57.944 274.411 58.752 274.411 59.8C274.411 60.84 274.595 61.644 274.963 62.212ZM282.636 59.164C282.092 59.164 281.64 58.984 281.28 58.624C280.92 58.264 280.74 57.824 280.74 57.304C280.74 56.792 280.92 56.356 281.28 55.996C281.648 55.628 282.1 55.444 282.636 55.444C283.18 55.444 283.632 55.624 283.992 55.984C284.352 56.344 284.532 56.784 284.532 57.304C284.532 57.824 284.352 58.264 283.992 58.624C283.64 58.984 283.188 59.164 282.636 59.164ZM281.94 58.012C282.124 58.196 282.356 58.288 282.636 58.288C282.916 58.288 283.144 58.192 283.32 58C283.504 57.808 283.596 57.576 283.596 57.304C283.596 57.032 283.504 56.804 283.32 56.62C283.144 56.428 282.916 56.332 282.636 56.332C282.356 56.332 282.124 56.428 281.94 56.62C281.764 56.804 281.676 57.032 281.676 57.304C281.676 57.584 281.764 57.82 281.94 58.012ZM281.304 62.812L286.884 56.572L287.472 56.896L281.88 63.148L281.304 62.812ZM287.616 63.604C287.256 63.964 286.804 64.144 286.26 64.144C285.716 64.144 285.264 63.964 284.904 63.604C284.544 63.244 284.364 62.804 284.364 62.284C284.364 61.764 284.544 61.324 284.904 60.964C285.264 60.604 285.716 60.424 286.26 60.424C286.804 60.424 287.256 60.604 287.616 60.964C287.976 61.324 288.156 61.764 288.156 62.284C288.156 62.804 287.976 63.244 287.616 63.604ZM285.564 62.98C285.748 63.164 285.98 63.256 286.26 63.256C286.54 63.256 286.768 63.164 286.944 62.98C287.128 62.788 287.22 62.556 287.22 62.284C287.22 62.012 287.128 61.784 286.944 61.6C286.768 61.408 286.54 61.312 286.26 61.312C285.98 61.312 285.748 61.408 285.564 61.6C285.388 61.784 285.3 62.012 285.3 62.284C285.3 62.556 285.388 62.788 285.564 62.98Z" fill="#979797"/>
<rect x="4" y="130" width="132.911" height="10" rx="5" fill="#4D4D4D"/>
<rect x="4" y="130" width="3.79747" height="10" rx="1.89873" fill="#7F7FD5"/>
<path d="M12.76 110.6V119H11.656V112.436L8.908 117.008H8.764L6.016 112.448V119H4.9V110.6H6.16L8.836 115.04L11.5 110.6H12.76ZM19.5123 118.244C18.8963 118.852 18.1483 119.156 17.2683 119.156C16.3883 119.156 15.6403 118.852 15.0243 118.244C14.4163 117.636 14.1123 116.888 14.1123 116C14.1123 115.112 14.4163 114.364 15.0243 113.756C15.6403 113.148 16.3883 112.844 17.2683 112.844C18.1483 112.844 18.8963 113.148 19.5123 113.756C20.1283 114.364 20.4362 115.112 20.4362 116C20.4362 116.888 20.1283 117.636 19.5123 118.244ZM17.2683 118.136C17.8683 118.136 18.3723 117.932 18.7803 117.524C19.1883 117.116 19.3923 116.608 19.3923 116C19.3923 115.392 19.1883 114.884 18.7803 114.476C18.3723 114.068 17.8683 113.864 17.2683 113.864C16.6763 113.864 16.1763 114.068 15.7683 114.476C15.3603 114.884 15.1562 115.392 15.1562 116C15.1562 116.608 15.3603 117.116 15.7683 117.524C16.1763 117.932 16.6763 118.136 17.2683 118.136ZM24.655 112.844C25.359 112.844 25.923 113.068 26.347 113.516C26.771 113.956 26.983 114.556 26.983 115.316V119H25.939V115.376C25.939 114.888 25.807 114.512 25.543 114.248C25.279 113.976 24.915 113.84 24.451 113.84C23.931 113.84 23.511 114.004 23.191 114.332C22.871 114.652 22.711 115.148 22.711 115.82V119H21.667V113H22.711V113.864C23.135 113.184 23.783 112.844 24.655 112.844ZM33.4204 113H34.4524V118.748C34.4524 119.636 34.1524 120.324 33.5524 120.812C32.9524 121.308 32.2324 121.556 31.3924 121.556C30.7204 121.556 30.1404 121.428 29.6524 121.172C29.1644 120.924 28.7964 120.564 28.5484 120.092L29.4604 119.576C29.7884 120.248 30.4404 120.584 31.4164 120.584C32.0404 120.584 32.5284 120.42 32.8804 120.092C33.2404 119.764 33.4204 119.316 33.4204 118.748V117.896C32.8924 118.696 32.1404 119.096 31.1644 119.096C30.3084 119.096 29.5844 118.792 28.9924 118.184C28.4004 117.576 28.1044 116.836 28.1044 115.964C28.1044 115.092 28.4004 114.356 28.9924 113.756C29.5844 113.148 30.3084 112.844 31.1644 112.844C32.1484 112.844 32.9004 113.24 33.4204 114.032V113ZM29.7604 117.488C30.1684 117.896 30.6764 118.1 31.2844 118.1C31.8924 118.1 32.4004 117.896 32.8084 117.488C33.2164 117.08 33.4204 116.572 33.4204 115.964C33.4204 115.364 33.2164 114.86 32.8084 114.452C32.4004 114.044 31.8924 113.84 31.2844 113.84C30.6764 113.84 30.1684 114.044 29.7604 114.452C29.3524 114.86 29.1484 115.364 29.1484 115.964C29.1484 116.572 29.3524 117.08 29.7604 117.488ZM41.0982 118.244C40.4822 118.852 39.7342 119.156 38.8542 119.156C37.9742 119.156 37.2262 118.852 36.6102 118.244C36.0022 117.636 35.6982 116.888 35.6982 116C35.6982 115.112 36.0022 114.364 36.6102 113.756C37.2262 113.148 37.9742 112.844 38.8542 112.844C39.7342 112.844 40.4822 113.148 41.0982 113.756C41.7142 114.364 42.0222 115.112 42.0222 116C42.0222 116.888 41.7142 117.636 41.0982 118.244ZM38.8542 118.136C39.4542 118.136 39.9582 117.932 40.3662 117.524C40.7742 117.116 40.9782 116.608 40.9782 116C40.9782 115.392 40.7742 114.884 40.3662 114.476C39.9582 114.068 39.4542 113.864 38.8542 113.864C38.2622 113.864 37.7622 114.068 37.3542 114.476C36.9462 114.884 36.7422 115.392 36.7422 116C36.7422 116.608 36.9462 117.116 37.3542 117.524C37.7622 117.932 38.2622 118.136 38.8542 118.136ZM43.2529 119V110.24H44.2969V119H43.2529ZM46.4177 111.908C46.2177 111.908 46.0497 111.84 45.9137 111.704C45.7777 111.568 45.7097 111.404 45.7097 111.212C45.7097 111.02 45.7777 110.856 45.9137 110.72C46.0497 110.576 46.2177 110.504 46.4177 110.504C46.6097 110.504 46.7737 110.576 46.9097 110.72C47.0457 110.856 47.1137 111.02 47.1137 111.212C47.1137 111.404 47.0457 111.568 46.9097 111.704C46.7737 111.84 46.6097 111.908 46.4177 111.908ZM45.8897 119V113H46.9337V119H45.8897ZM53.4944 113H54.5384V119H53.4944V117.968C52.9744 118.76 52.2184 119.156 51.2264 119.156C50.3864 119.156 49.6704 118.852 49.0784 118.244C48.4864 117.628 48.1904 116.88 48.1904 116C48.1904 115.12 48.4864 114.376 49.0784 113.768C49.6704 113.152 50.3864 112.844 51.2264 112.844C52.2184 112.844 52.9744 113.24 53.4944 114.032V113ZM51.3584 118.148C51.9664 118.148 52.4744 117.944 52.8824 117.536C53.2904 117.12 53.4944 116.608 53.4944 116C53.4944 115.392 53.2904 114.884 52.8824 114.476C52.4744 114.06 51.9664 113.852 51.3584 113.852C50.7584 113.852 50.2544 114.06 49.8464 114.476C49.4384 114.884 49.2344 115.392 49.2344 116C49.2344 116.608 49.4384 117.12 49.8464 117.536C50.2544 117.944 50.7584 118.148 51.3584 118.148Z" fill="#CACACA"/>
<path d="M106.188 117.968C105.62 118.76 104.824 119.156 103.8 119.156C102.776 119.156 101.98 118.76 101.412 117.968C100.844 117.176 100.56 116.12 100.56 114.8C100.56 113.48 100.844 112.424 101.412 111.632C101.98 110.84 102.776 110.444 103.8 110.444C104.824 110.444 105.62 110.84 106.188 111.632C106.756 112.424 107.04 113.48 107.04 114.8C107.04 116.12 106.756 117.176 106.188 117.968ZM102.228 117.212C102.596 117.78 103.12 118.064 103.8 118.064C104.48 118.064 105.004 117.78 105.372 117.212C105.748 116.644 105.936 115.84 105.936 114.8C105.936 113.76 105.748 112.956 105.372 112.388C105.004 111.812 104.48 111.524 103.8 111.524C103.12 111.524 102.596 111.808 102.228 112.376C101.86 112.944 101.676 113.752 101.676 114.8C101.676 115.84 101.86 116.644 102.228 117.212ZM109.567 117.764L108.787 120.68H107.887L108.367 117.764H109.567ZM112.626 110.6H113.586V119H112.482V111.8L110.694 112.328L110.418 111.368L112.626 110.6ZM118.319 114.044C118.959 114.164 119.483 114.44 119.891 114.872C120.299 115.304 120.503 115.852 120.503 116.516C120.503 117.332 120.223 117.976 119.663 118.448C119.103 118.92 118.423 119.156 117.623 119.156C116.983 119.156 116.415 119.012 115.919 118.724C115.423 118.428 115.071 118.004 114.863 117.452L115.799 116.9C116.047 117.676 116.655 118.064 117.623 118.064C118.143 118.064 118.567 117.928 118.895 117.656C119.223 117.384 119.387 117.004 119.387 116.516C119.387 116.028 119.223 115.648 118.895 115.376C118.567 115.096 118.143 114.956 117.623 114.956H117.335L116.891 114.272L118.835 111.644H115.103V110.6H120.143V111.584L118.319 114.044ZM123.142 114.164C122.598 114.164 122.146 113.984 121.786 113.624C121.426 113.264 121.246 112.824 121.246 112.304C121.246 111.792 121.426 111.356 121.786 110.996C122.154 110.628 122.606 110.444 123.142 110.444C123.686 110.444 124.138 110.624 124.498 110.984C124.858 111.344 125.038 111.784 125.038 112.304C125.038 112.824 124.858 113.264 124.498 113.624C124.146 113.984 123.694 114.164 123.142 114.164ZM122.446 113.012C122.63 113.196 122.862 113.288 123.142 113.288C123.422 113.288 123.65 113.192 123.826 113C124.01 112.808 124.102 112.576 124.102 112.304C124.102 112.032 124.01 111.804 123.826 111.62C123.65 111.428 123.422 111.332 123.142 111.332C122.862 111.332 122.63 111.428 122.446 111.62C122.27 111.804 122.182 112.032 122.182 112.304C122.182 112.584 122.27 112.82 122.446 113.012ZM121.81 117.812L127.39 111.572L127.978 111.896L122.386 118.148L121.81 117.812ZM128.122 118.604C127.762 118.964 127.31 119.144 126.766 119.144C126.222 119.144 125.77 118.964 125.41 118.604C125.05 118.244 124.87 117.804 124.87 117.284C124.87 116.764 125.05 116.324 125.41 115.964C125.77 115.604 126.222 115.424 126.766 115.424C127.31 115.424 127.762 115.604 128.122 115.964C128.482 116.324 128.662 116.764 128.662 117.284C128.662 117.804 128.482 118.244 128.122 118.604ZM126.07 117.98C126.254 118.164 126.486 118.256 126.766 118.256C127.046 118.256 127.274 118.164 127.45 117.98C127.634 117.788 127.726 117.556 127.726 117.284C127.726 117.012 127.634 116.784 127.45 116.6C127.274 116.408 127.046 116.312 126.766 116.312C126.486 116.312 126.254 116.408 126.07 116.6C125.894 116.784 125.806 117.012 125.806 117.284C125.806 117.556 125.894 117.788 126.07 117.98Z" fill="#979797"/>
<rect x="171.089" y="129" width="132.911" height="10" rx="5" fill="#4D4D4D"/>
<rect x="171.089" y="129" width="14.2405" height="10" rx="5" fill="#7F7FD5"/>
<path d="M178.973 116.884C178.133 117.732 177.105 118.156 175.889 118.156C174.673 118.156 173.645 117.732 172.805 116.884C171.965 116.036 171.545 115.008 171.545 113.8C171.545 112.584 171.965 111.556 172.805 110.716C173.645 109.868 174.673 109.444 175.889 109.444C177.105 109.444 178.133 109.868 178.973 110.716C179.821 111.556 180.245 112.584 180.245 113.8C180.245 115.008 179.821 116.036 178.973 116.884ZM173.573 116.128C174.197 116.752 174.969 117.064 175.889 117.064C176.809 117.064 177.577 116.752 178.193 116.128C178.817 115.496 179.129 114.72 179.129 113.8C179.129 112.872 178.817 112.096 178.193 111.472C177.577 110.84 176.809 110.524 175.889 110.524C174.969 110.524 174.197 110.84 173.573 111.472C172.957 112.096 172.649 112.872 172.649 113.8C172.649 114.72 172.957 115.496 173.573 116.128ZM184.742 113.008H183.146V116.26C183.146 116.556 183.202 116.768 183.314 116.896C183.434 117.016 183.614 117.08 183.854 117.088C184.094 117.088 184.39 117.08 184.742 117.064V118C183.83 118.12 183.162 118.048 182.738 117.784C182.314 117.512 182.102 117.004 182.102 116.26V113.008H180.914V112H182.102V110.632L183.146 110.32V112H184.742V113.008ZM188.966 111.844C189.67 111.844 190.234 112.068 190.658 112.516C191.082 112.956 191.294 113.556 191.294 114.316V118H190.25V114.376C190.25 113.888 190.118 113.512 189.854 113.248C189.59 112.976 189.226 112.84 188.762 112.84C188.242 112.84 187.822 113.004 187.502 113.332C187.182 113.652 187.022 114.148 187.022 114.82V118H185.978V109.6H187.022V112.864C187.446 112.184 188.094 111.844 188.966 111.844ZM193.484 115.48C193.588 116.016 193.832 116.432 194.216 116.728C194.608 117.024 195.088 117.172 195.656 117.172C196.448 117.172 197.024 116.88 197.384 116.296L198.272 116.8C197.688 117.704 196.808 118.156 195.632 118.156C194.68 118.156 193.904 117.86 193.304 117.268C192.712 116.668 192.416 115.912 192.416 115C192.416 114.096 192.708 113.344 193.292 112.744C193.876 112.144 194.632 111.844 195.56 111.844C196.44 111.844 197.156 112.156 197.708 112.78C198.268 113.396 198.548 114.14 198.548 115.012C198.548 115.164 198.536 115.32 198.512 115.48H193.484ZM195.56 112.828C195 112.828 194.536 112.988 194.168 113.308C193.8 113.62 193.572 114.04 193.484 114.568H197.492C197.404 114 197.18 113.568 196.82 113.272C196.46 112.976 196.04 112.828 195.56 112.828ZM200.792 113.008C201.136 112.264 201.76 111.892 202.664 111.892V112.984C202.152 112.96 201.712 113.096 201.344 113.392C200.976 113.688 200.792 114.164 200.792 114.82V118H199.748V112H200.792V113.008Z" fill="#CACACA"/>
<path d="M262.838 109.6H263.798V118H262.694V110.8L260.906 111.328L260.63 110.368L262.838 109.6ZM267.092 116.764L266.312 119.68H265.412L265.892 116.764H267.092ZM271.567 113.044C272.207 113.164 272.731 113.44 273.139 113.872C273.547 114.304 273.751 114.852 273.751 115.516C273.751 116.332 273.471 116.976 272.911 117.448C272.351 117.92 271.671 118.156 270.871 118.156C270.231 118.156 269.663 118.012 269.167 117.724C268.671 117.428 268.319 117.004 268.111 116.452L269.047 115.9C269.295 116.676 269.903 117.064 270.871 117.064C271.391 117.064 271.815 116.928 272.143 116.656C272.471 116.384 272.635 116.004 272.635 115.516C272.635 115.028 272.471 114.648 272.143 114.376C271.815 114.096 271.391 113.956 270.871 113.956H270.583L270.139 113.272L272.083 110.644H268.351V109.6H273.391V110.584L271.567 113.044ZM274.413 109.6H279.657V110.596L276.597 118H275.433L278.469 110.656H274.413V109.6ZM282.636 113.164C282.092 113.164 281.64 112.984 281.28 112.624C280.92 112.264 280.74 111.824 280.74 111.304C280.74 110.792 280.92 110.356 281.28 109.996C281.648 109.628 282.1 109.444 282.636 109.444C283.18 109.444 283.632 109.624 283.992 109.984C284.352 110.344 284.532 110.784 284.532 111.304C284.532 111.824 284.352 112.264 283.992 112.624C283.64 112.984 283.188 113.164 282.636 113.164ZM281.94 112.012C282.124 112.196 282.356 112.288 282.636 112.288C282.916 112.288 283.144 112.192 283.32 112C283.504 111.808 283.596 111.576 283.596 111.304C283.596 111.032 283.504 110.804 283.32 110.62C283.144 110.428 282.916 110.332 282.636 110.332C282.356 110.332 282.124 110.428 281.94 110.62C281.764 110.804 281.676 111.032 281.676 111.304C281.676 111.584 281.764 111.82 281.94 112.012ZM281.304 116.812L286.884 110.572L287.472 110.896L281.88 117.148L281.304 116.812ZM287.616 117.604C287.256 117.964 286.804 118.144 286.26 118.144C285.716 118.144 285.264 117.964 284.904 117.604C284.544 117.244 284.364 116.804 284.364 116.284C284.364 115.764 284.544 115.324 284.904 114.964C285.264 114.604 285.716 114.424 286.26 114.424C286.804 114.424 287.256 114.604 287.616 114.964C287.976 115.324 288.156 115.764 288.156 116.284C288.156 116.804 287.976 117.244 287.616 117.604ZM285.564 116.98C285.748 117.164 285.98 117.256 286.26 117.256C286.54 117.256 286.768 117.164 286.944 116.98C287.128 116.788 287.22 116.556 287.22 116.284C287.22 116.012 287.128 115.784 286.944 115.6C286.768 115.408 286.54 115.312 286.26 115.312C285.98 115.312 285.748 115.408 285.564 115.6C285.388 115.784 285.3 116.012 285.3 116.284C285.3 116.556 285.388 116.788 285.564 116.98Z" fill="#979797"/>
</g>
<defs>
<filter id="filter0_d_1_330" x="0" y="2.444" width="308" height="145.556" filterUnits="userSpaceOnUse" color-interpolation-filters="sRGB">
<feFlood flood-opacity="0" result="BackgroundImageFix"/>
<feColorMatrix in="SourceAlpha" type="matrix" values="0 0 0 0 0 0 0 0 0 0 0 0 0 0 0 0 0 0 127 0" result="hardAlpha"/>
<feOffset dy="4"/>
<feGaussianBlur stdDeviation="2"/>
<feComposite in2="hardAlpha" operator="out"/>
<feColorMatrix type="matrix" values="0 0 0 0 0 0 0 0 0 0 0 0 0 0 0 0 0 0 0.25 0"/>
<feBlend mode="normal" in2="BackgroundImageFix" result="effect1_dropShadow_1_330"/>
<feBlend mode="normal" in="SourceGraphic" in2="effect1_dropShadow_1_330" result="shape"/>
</filter>
</defs>
</svg>
